<svg xmlns="http://www.w3.org/2000/svg" width="76" height="104" viewBox="0 0 76 104">
  <path fill="#000000" fill-rule="evenodd" d="M23.5043692,16.1256323 C27.2658434,15.7433677 31.0654403,16.2363146 34.6008219,17.5652485 C37.4747715,18.7895629 39.8915496,20.8720256 41.5141875,23.5222811 C43.0170931,25.7809892 43.54311,29.975733 42.2155434,28.2630861 C41.33297,27.1176033 40.2463474,26.1417938 39.0093449,25.3838537 C34.8795245,22.3670991 29.9276948,21.564345 24.6315483,21.983381 C19.3354019,22.402417 18.7990049,22.9074627 14.9615256,24.4424544 C14.2901563,24.3636512 13.9703663,24.2357352 14.0021558,24.0587065 C14.3901556,21.8980175 14.9615256,20.0293532 15.5371475,18.8781095 C15.7888881,18.3746282 16.236594,17.9970253 16.8802652,17.7453006 C19.4234199,17.0104666 20.85373,16.4649746 23.5043692,16.1256323 Z M31.8797425,30.4370504 C31.8797425,30.4370504 33.257128,31.9302947 38.0904988,31.2085599 C41.9471781,30.6361496 43.8003876,29.5162164 48.3833247,29.8895274 C52.2615493,30.3937955 55.6277066,32.7952332 57.348852,36.2855907 C59.5431884,40.1924763 60.4702711,44.6773389 60.0034494,49.127492 L60.0034494,50.172763 C60.0034494,50.172763 59.8031024,50.7949482 60.8048373,50.6953985 C61.89846,50.4405888 62.7803931,49.639541 63.1338709,48.5799691 C63.4963965,47.53918 63.5571426,46.4180634 63.3091746,45.3446063 C63.1471665,44.9694948 63.0295105,44.5769665 62.9585673,44.1748983 C63.4900129,44.3436924 63.9544325,44.6745987 64.2858661,45.1206197 C65.5681378,47.0999809 66.1578868,49.4442852 65.963772,51.7904444 C65.7223516,53.7570089 64.7043318,55.5475923 63.1338709,56.7679255 C62.1323751,57.515659 60.928913,57.9489804 59.6778856,58.0122958 C58.5509338,58.3109446 58.3505869,58.3856069 58.1251965,59.007792 C57.9845125,59.4050445 57.7907819,59.7817221 57.549199,60.1277253 C57.2033059,60.662724 56.909792,61.2294281 56.6726809,61.8200688 C56.6450776,63.1589654 56.4085238,64.4854919 55.9714665,65.7522789 C54.5936671,69.4953425 52.9188412,73.1237244 50.9627921,76.6031878 C49.8180732,78.5703298 48.3346892,80.3224573 46.5802019,81.7797681 C45.1777731,82.8001518 44.3513418,83.4472243 39.918665,83.2481251 C35.4859881,83.0490258 35.0352074,81.4811193 30.6025305,84.1191843 C28.5137359,85.9586061 26.016435,87.2804994 23.3149092,87.9767321 C21.9442677,88.2430491 20.5303101,88.1919527 19.1827528,87.8274077 L19.9590973,87.6531959 C21.5727912,87.0899063 23.0734774,86.2473413 24.3917742,85.1644553 C25.9252836,83.9364685 27.3728046,82.6060583 28.7242776,81.1824704 C30.3738215,78.9585171 33.2286742,77.9699899 35.9117254,78.6937298 C37.5546712,79.0949197 39.2313135,79.3448497 40.9203998,79.440352 C43.2208817,79.6374314 45.411179,78.4259892 46.4549851,76.3792011 C48.0861323,73.7451482 49.4773881,70.971637 50.6121849,68.0916951 C51.5609026,65.8254106 52.1359236,63.4220018 52.3151342,60.973897 C52.0835161,59.0318361 52.6026868,57.0748323 53.7676498,55.4986678 C55.311951,52.8509593 55.9532458,49.7779464 55.5958159,46.738301 C55.5670373,43.2132461 54.1879509,39.8314985 51.7391366,37.2810869 C49.3704824,34.8294916 46.0021622,33.5914333 42.5983058,33.9212871 C39.721274,34.4029785 36.7687579,34.1634578 34.0084291,33.2244398 C32.738931,32.7686176 31.7934666,31.6975007 31.5040919,30.3872756 C31.3287883,29.2175675 32.0550461,30.3872756 32.0550461,30.3872756 L31.8797425,30.4370504 Z M31.6322782,38.0320264 C31.6322782,38.0320264 24.8720358,43.8601291 29.7486992,47.7369727 C31.0388218,48.7639512 33.4384499,49.3801382 32.3289444,53.1286096 C32.013725,54.2641639 31.2454375,55.2220117 30.2025355,55.7796697 C29.1596335,56.3373277 27.9328805,56.446263 26.8072197,56.0811726 C23.4408432,54.4078372 21.4903816,50.8137879 21.9305563,47.0951112 C22.4452062,42.7432464 25.5730338,39.1427282 29.8261066,38.0063519 C30.4501437,37.8293919 31.1114509,37.8293919 31.735488,38.0063519 L31.6322782,38.0320264 Z M35.6791744,55.5260366 C35.6791744,55.5260366 39.675251,57.500093 40.3412638,57.7617149 C40.721166,57.8333935 41.049933,58.0441252 41.2474694,58.3425708 C41.4450057,58.6410164 41.4931756,58.9997758 41.3802437,59.3314466 C41.26604,60.8646215 40.3856396,62.2706772 38.9825977,63.1606404 C37.6443884,63.8571762 35.9520427,63.6828447 34.826678,62.7325318 C33.4899149,61.5455537 33.0341595,59.7793064 33.6544955,58.1898236 C33.9864363,57.1289858 34.7090869,56.1989502 35.7058149,55.5498204 L35.6791744,55.5260366 Z"/>
</svg>
