<?xml version="1.0" encoding="UTF-8"?>
<svg width="123px" height="56px" viewBox="0 0 123 56" version="1.1" xmlns="http://www.w3.org/2000/svg" xmlns:xlink="http://www.w3.org/1999/xlink">
    <!-- Generator: Sketch 57 (83077) - https://sketch.com -->
    <title>logo-bison</title>
    <desc>Created with Sketch.</desc>
    <g id="Page-1" stroke="none" stroke-width="1" fill="none" fill-rule="evenodd">
        <g id="Ab-/-00.30-Product-Info" transform="translate(-1047.000000, -562.000000)">
            <g id="Modal" transform="translate(490.000000, 340.000000)">
                <g id="Zeile_3" transform="translate(165.000000, 222.000000)">
                    <g id="logo-bison" transform="translate(392.000000, 0.000000)">
                        <g id="Group" transform="translate(18.542857, 0.000000)"></g>
                        <path d="M100.280857,47.4891429 C99.0957236,47.9439053 97.994865,48.5934119 97.0237143,49.4108571 C95.6161907,50.9257986 94.1149527,52.3508868 92.5288571,53.6777143 C91.0031037,54.7380387 89.1506993,55.2227801 87.3011429,55.0457143 L87.3337143,55.0457143 C88.1573941,54.7265983 88.9482292,54.3284538 89.6951429,53.8568571 C90.9635372,52.7697074 92.1201387,51.5585493 93.1477143,50.2414286 C94.2836922,49.0627574 95.7019673,48.1938537 97.268,47.7171429 C98.2349604,47.3784687 99.273942,47.2998431 100.280857,47.4891429 Z M109.742857,8.81057143 C112.264868,9.14055222 114.453881,10.7119948 115.573143,12.996 C117.000121,15.5525712 117.603003,18.4873564 117.299429,21.3994286 L117.299429,22.0834286 C117.299429,22.0834286 117.169143,22.4905714 117.820571,22.4254286 C118.531755,22.2586873 119.105276,21.734501 119.335143,21.0411429 C119.570893,20.3600757 119.610397,19.6264443 119.449143,18.924 C119.343789,18.6785361 119.267277,18.4216751 119.221143,18.1585714 C119.566742,18.2690262 119.868754,18.4855633 120.084286,18.7774286 C120.918148,20.0726745 121.301661,21.6067303 121.175429,23.142 C121.018433,24.4288721 120.356414,25.6005865 119.335143,26.3991429 C118.68387,26.8884415 117.901258,27.1719965 117.087714,27.2134286 C116.354857,27.4088571 116.224571,27.4577143 116.078,27.8648571 C115.986513,28.1248095 115.86053,28.3712982 115.703429,28.5977143 C115.478494,28.9478045 115.287622,29.3186419 115.133429,29.7051429 C115.115478,30.5812843 114.961647,31.4493311 114.677429,32.2782857 C113.781445,34.7276557 112.692305,37.1019807 111.420286,39.3788571 C110.675875,40.6661072 109.711229,41.8126568 108.570286,42.7662857 C107.658286,43.434 107.120857,43.8574286 104.238286,43.7271429 C101.355714,43.5968571 101.062571,42.5708571 98.18,44.2971429 C96.8216561,45.5008159 95.1976603,46.3658308 93.4408571,46.8214286 C92.5495284,46.9956999 91.6300313,46.9622637 90.7537143,46.7237143 L91.2585714,46.6097143 C92.3079571,46.2411113 93.2838539,45.6897572 94.1411429,44.9811429 C95.1383846,44.1775781 96.079708,43.3069899 96.9585714,42.3754286 C98.0312704,40.9201275 99.8877822,40.2732593 101.632571,40.7468571 C102.70098,41.009386 103.791301,41.1729342 104.889714,41.2354286 C106.385719,41.3643926 107.81007,40.5716542 108.488857,39.2322857 C109.549593,37.5086254 110.454327,35.693707 111.192286,33.8091429 C111.809237,32.3261413 112.183174,30.7534089 112.299714,29.1514286 C112.149093,27.880591 112.48671,26.5999752 113.244286,25.5685714 C114.248545,23.8359752 114.66558,21.8250702 114.433143,19.836 C114.414428,17.5292896 113.517608,15.316356 111.925143,13.6474286 C110.384806,12.0431641 108.194386,11.2330088 105.980857,11.4488571 C104.109922,11.7640643 102.1899,11.6073277 100.394857,10.9928571 C99.5693021,10.6945782 98.9544662,9.99366525 98.7662857,9.13628571 C98.6522857,8.37085714 99.1245714,9.13628571 99.1245714,9.13628571 L99.0105714,9.16885714 C99.0105714,9.16885714 99.9062857,10.146 103.049429,9.67371429 C105.557429,9.29914286 106.762571,8.56628571 109.742857,8.81057143 Z M60.218,17.898 C59.6123646,18.9193622 58.6395074,19.6708507 57.4982857,19.9988571 C55.8072728,20.6505498 54.0481557,21.1094499 52.2542857,21.3668571 C50.4689639,21.6423517 48.7056145,22.0450919 46.9777143,22.572 C43.9485714,23.5328571 41.522,27.132 40.3657143,28.4185714 C36.1444571,33.1035273 34.0896468,32.6235482 34.0163219,32.6045457 L34.0142857,32.604 L34.5354286,32.262 C35.3627928,31.5537448 36.0913028,30.7375946 36.7014286,29.8354286 C38.0857143,28.1091429 39.4048571,25.7151429 40.2354286,24.5588571 C41.5954215,22.3795771 43.7817242,20.8456388 46.2937143,20.3082857 C48.2297502,19.9118111 50.1972196,19.6883589 52.1728571,19.6405714 C54.2175676,19.4977586 56.245219,19.1707181 58.2311429,18.6634286 C58.9257916,18.501892 59.5945182,18.2442678 60.218,17.898 Z M35.5125714,26.9691429 C35.2187325,27.9858991 34.622285,28.8890909 33.8025714,29.5585714 C32.1299851,31.3075662 29.8517471,32.3505448 27.4348571,32.4737143 C25.0884806,32.5163637 22.8171918,31.6463842 21.0997143,30.0471429 C19.5048,28.5933714 19.365539,28.0937257 19.3567568,27.9863317 L19.3558571,27.9738549 L19.6503529,28.2123902 C20.1746936,28.6173554 20.7409589,28.9649251 21.3394219,29.2491292 L21.7022857,29.412 C23.4981376,30.2351716 25.4603273,30.6309542 27.4348571,30.5682857 C29.3923835,30.4000164 31.2832287,29.7753124 32.9557143,28.7442857 C33.8396115,28.1994542 34.6931627,27.6068614 35.5125714,26.9691429 Z M101.486,25.7802857 C101.486,25.7802857 103.928857,27.132 104.336,27.3111429 C104.56824,27.360224 104.769219,27.5045203 104.889976,27.7088778 C105.010733,27.9132353 105.04018,28.1588919 104.971143,28.386 C104.901329,29.4358253 104.363128,30.3986071 103.505429,31.008 C102.687363,31.4849455 101.652808,31.3655739 100.964857,30.7148571 C100.147675,29.9020865 99.8690657,28.6926673 100.248286,27.6042857 C100.451206,26.8778882 100.892972,26.2410562 101.502286,25.7965714 L101.486,25.7802857 Z M19.3408571,27.9625714 L19.3571429,27.9625714 C19.3571429,27.9625714 19.3567086,27.964381 19.3564432,27.9682557 L19.3558571,27.9738549 L19.3408571,27.9625714 L19.3408571,27.9625714 Z M98.6522857,14.6734286 L98.5871429,14.6897143 C98.5871429,14.6897143 94.3202857,18.3865714 97.3982857,20.8457143 C98.2125714,21.4971429 99.7271429,21.888 99.0268571,24.2657143 C98.8279003,24.9860142 98.3429809,25.5935922 97.6847332,25.9473234 C97.0264855,26.3010547 96.2521968,26.370154 95.5417143,26.1385714 C93.416961,25.0771485 92.1858895,22.7973865 92.4637143,20.4385714 C92.7885454,17.6781152 94.7627341,15.3942499 97.4471429,14.6734286 C97.8410159,14.56118 98.2584127,14.56118 98.6522857,14.6734286 Z M101.062571,1.07485714 C102.931125,1.87816315 104.502439,3.24452369 105.557429,4.98342857 C106.534571,6.46542857 106.876571,9.21771429 106.013429,8.094 C105.439607,7.34241748 104.733118,6.70216229 103.928857,6.20485714 C101.243775,4.22548222 97.8704432,3.42034897 94.5808571,3.97371429 C90.1227667,4.3283725 85.7945311,5.64517846 81.8942857,7.83342857 C77.7484785,10.1123854 73.7652594,12.6753583 69.9731429,15.504 C66.9512264,17.7979335 63.809044,19.9289637 60.56,21.888 C55.8950824,24.1288516 53.9865099,23.7109279 53.5571979,23.5578029 L53.5388571,23.5508549 L54.062,23.3862857 C55.9151659,22.7524756 57.6785841,21.8837889 59.3093606,20.8020382 L59.7945714,20.4711429 C61.8952175,19.0180079 63.9073587,17.4409243 65.8202857,15.7482857 C67.0905714,14.706 71.5691429,11.058 73.6048571,9.42942857 C76.7468594,6.85431147 80.2058841,4.69242102 83.8974286,2.99657143 C87.0495777,1.54162693 90.4048868,0.575122168 93.848,0.130285714 C96.2935946,-0.120528515 98.7639753,0.202907338 101.062571,1.07485714 Z M53.4594286,23.5165714 C53.4594286,23.5165714 53.4821948,23.5293639 53.5307546,23.5480189 L53.5388571,23.5508549 L53.4431429,23.5817143 L53.4594286,23.5165714 Z" id="Bison" fill="#000000" fill-rule="nonzero"></path>
                        <path d="M42.5154286,37.3268571 L41.2614286,40.8934286 C40.0085802,40.3315645 38.6436744,40.0641543 37.2714286,40.1117143 C35.3497143,40.1117143 33.8025714,40.4048571 33.8025714,41.8705714 C33.8025714,44.4762857 40.8217143,43.4991429 40.8217143,49.0851429 C40.8217143,54.1662857 36.1802857,55.4854286 31.9785714,55.4854286 C30.0757714,55.4381165 28.1894054,55.1200664 26.3762857,54.5408571 L27.5162857,50.8114286 C28.8922568,51.5306352 30.426169,51.8945195 31.9785714,51.87 C33.4768571,51.87 35.8382857,51.5768571 35.8382857,49.6877143 C35.8382857,46.74 28.8191429,47.8474286 28.8191429,42.6685714 C28.8191429,37.9294286 32.9231429,36.5125714 36.962,36.5125714 C38.8484762,36.4204013 40.7348227,36.6969917 42.5154286,37.3268571 Z M53.9968571,36.4474286 C59.876,36.4474286 62.0257143,40.1605714 62.0257143,43.9388571 C62.0257143,50.8928571 58.4265714,55.4365714 51.4562857,55.4365714 L51.4562857,55.4528571 C45.5771429,55.4528571 43.4274286,51.7397143 43.4274286,47.9777143 C43.4274286,41.0074286 47.0265714,36.4474286 53.9968571,36.4474286 Z M72.3997143,36.7242857 L76.0965714,49.4597143 L76.1617143,49.4597143 L78.7022857,36.7242857 L83.2622857,36.7242857 L79.4188571,55.0945714 L73.4094286,55.0945714 L69.6311429,42.3754286 L69.566,42.3754286 L67.058,55.0945714 L62.498,55.0945714 L66.3577143,36.7242857 L72.3997143,36.7242857 Z M26.7508571,36.7242857 L22.9888571,55.0945714 L18.1194286,55.0945714 L21.8814286,36.7242857 L26.7508571,36.7242857 Z M12.3868571,36.7242857 C14.2597143,36.7242857 17.4842857,37.4571429 17.4842857,40.926 C17.3695559,43.4040907 15.4198418,45.3898732 12.9692652,45.5721486 L12.7451429,45.5837143 C14.6758129,45.6359814 16.221061,47.2027911 16.2465714,49.134 C16.2465714,53.0262857 12.9894286,54.8665714 8.804,54.9317143 L0.563428571,55.0294286 L4.358,36.7242857 L12.3868571,36.7242857 Z M53.6874286,40.0954286 L53.6874286,40.1117143 C49.958,40.1117143 48.3945714,44.5088571 48.3945714,47.6031429 C48.3945714,49.9157143 49.2414286,51.8374286 51.7657143,51.8374286 C55.4951429,51.8374286 57.0585714,47.4402857 57.0585714,44.3622857 C57.0585714,42.0497143 56.1954286,40.0954286 53.6874286,40.0954286 Z M8.39359397,47.2939399 L7.01257143,47.2937143 L6.068,51.6094286 L7.37085714,51.6094286 C9.81371429,51.6094286 11.4422857,50.9254286 11.4422857,49.134 C11.4422857,47.4022857 10.377019,47.2989076 8.39359397,47.2939399 Z M9.83,40.1931429 L8.59228571,40.1931429 L7.69657143,43.9877143 L9.58571429,43.9877143 C11.6051429,43.9877143 12.8428571,43.1734286 12.8428571,41.9031429 C12.8428571,40.6328571 11.654,40.1931429 9.83,40.1931429 Z" id="Schrift" fill="#ED3F52" fill-rule="nonzero"></path>
                    </g>
                </g>
            </g>
        </g>
    </g>
</svg>